<?xml version="1.0" encoding="UTF-8" standalone="no"?>
<!DOCTYPE svg PUBLIC "-//W3C//DTD SVG 1.1//EN"
 "http://www.w3.org/Graphics/SVG/1.1/DTD/svg11.dtd">
<!-- Generated by graphviz version 2.47.3 (20210619.1520)
 -->
<!-- Title: dependencies Pages: 1 -->
<svg width="471pt" height="323pt"
 viewBox="0.00 0.00 471.00 322.80" xmlns="http://www.w3.org/2000/svg" xmlns:xlink="http://www.w3.org/1999/xlink">
<g id="graph0" class="graph" transform="scale(1 1) rotate(0) translate(4 318.8)">
<title>dependencies</title>
<polygon fill="white" stroke="transparent" points="-4,4 -4,-318.8 467,-318.8 467,4 -4,4"/>
<text text-anchor="middle" x="231.5" y="-8.2" font-family="sans-serif" font-size="14.00">dependencies</text>
<g id="clust1" class="cluster">
<title>cluster_AppModule</title>
<polygon fill="none" stroke="black" stroke-dasharray="1,5" points="29,-108.8 29,-306.8 455,-306.8 455,-108.8 29,-108.8"/>
</g>
<g id="clust2" class="cluster">
<title>cluster_AppModule_declarations</title>
<polygon fill="none" stroke="black" points="325,-116.8 325,-168.8 447,-168.8 447,-116.8 325,-116.8"/>
</g>
<g id="clust4" class="cluster">
<title>cluster_AppModule_imports</title>
<polygon fill="none" stroke="black" points="37,-116.8 37,-168.8 317,-168.8 317,-116.8 37,-116.8"/>
</g>
<g id="clust6" class="cluster">
<title>cluster_AppModule_bootstrap</title>
<polygon fill="none" stroke="black" points="183,-246.8 183,-298.8 307,-298.8 307,-246.8 183,-246.8"/>
</g>
<g id="clust14" class="cluster">
<title>cluster_SpeedTestModule</title>
<polygon fill="none" stroke="black" stroke-dasharray="1,5" points="8,-32.8 8,-100.8 200,-100.8 200,-32.8 8,-32.8"/>
</g>
<g id="clust19" class="cluster">
<title>cluster_SpeedTestModule_providers</title>
<polygon fill="none" stroke="black" points="16,-40.8 16,-92.8 192,-92.8 192,-40.8 16,-40.8"/>
</g>
<!-- AppComponent -->
<g id="node1" class="node">
<title>AppComponent</title>
<polygon fill="#ffffb3" stroke="black" points="438.94,-160.8 333.06,-160.8 333.06,-124.8 438.94,-124.8 438.94,-160.8"/>
<text text-anchor="middle" x="386" y="-138.6" font-family="Times,serif" font-size="14.00">AppComponent</text>
</g>
<!-- AppModule -->
<g id="node2" class="node">
<title>AppModule</title>
<polygon fill="#8dd3c7" stroke="black" points="286.66,-225.8 283.66,-229.8 262.66,-229.8 259.66,-225.8 203.34,-225.8 203.34,-189.8 286.66,-189.8 286.66,-225.8"/>
<text text-anchor="middle" x="245" y="-203.6" font-family="Times,serif" font-size="14.00">AppModule</text>
</g>
<!-- AppComponent&#45;&gt;AppModule -->
<g id="edge1" class="edge">
<title>AppComponent&#45;&gt;AppModule</title>
<path fill="none" stroke="black" d="M386,-160.91C386,-180.14 386,-207.8 386,-207.8 386,-207.8 296.92,-207.8 296.92,-207.8"/>
<polygon fill="black" stroke="black" points="296.92,-204.3 286.92,-207.8 296.92,-211.3 296.92,-204.3"/>
</g>
<!-- AppComponent  -->
<g id="node5" class="node">
<title>AppComponent </title>
<polygon fill="#80b1d3" stroke="black" points="299.44,-290.8 190.56,-290.8 190.56,-254.8 299.44,-254.8 299.44,-290.8"/>
<text text-anchor="middle" x="245" y="-268.6" font-family="Times,serif" font-size="14.00">AppComponent </text>
</g>
<!-- AppModule&#45;&gt;AppComponent  -->
<g id="edge4" class="edge">
<title>AppModule&#45;&gt;AppComponent </title>
<path fill="none" stroke="black" stroke-dasharray="1,5" d="M245,-225.91C245,-225.91 245,-244.79 245,-244.79"/>
<polygon fill="black" stroke="black" points="241.5,-244.79 245,-254.79 248.5,-244.79 241.5,-244.79"/>
</g>
<!-- AppRoutingModule -->
<g id="node3" class="node">
<title>AppRoutingModule</title>
<polygon fill="#8dd3c7" stroke="black" points="309.27,-160.8 306.27,-164.8 285.27,-164.8 282.27,-160.8 180.73,-160.8 180.73,-124.8 309.27,-124.8 309.27,-160.8"/>
<text text-anchor="middle" x="245" y="-138.6" font-family="Times,serif" font-size="14.00">AppRoutingModule</text>
</g>
<!-- AppRoutingModule&#45;&gt;AppModule -->
<g id="edge2" class="edge">
<title>AppRoutingModule&#45;&gt;AppModule</title>
<path fill="none" stroke="black" d="M245,-160.91C245,-160.91 245,-179.79 245,-179.79"/>
<polygon fill="black" stroke="black" points="241.5,-179.79 245,-189.79 248.5,-179.79 241.5,-179.79"/>
</g>
<!-- SpeedTestModule -->
<g id="node4" class="node">
<title>SpeedTestModule</title>
<polygon fill="#8dd3c7" stroke="black" points="162.86,-160.8 159.86,-164.8 138.86,-164.8 135.86,-160.8 45.14,-160.8 45.14,-124.8 162.86,-124.8 162.86,-160.8"/>
<text text-anchor="middle" x="104" y="-138.6" font-family="Times,serif" font-size="14.00">SpeedTestModule</text>
</g>
<!-- SpeedTestModule&#45;&gt;AppModule -->
<g id="edge3" class="edge">
<title>SpeedTestModule&#45;&gt;AppModule</title>
<path fill="none" stroke="black" d="M104,-160.91C104,-180.14 104,-207.8 104,-207.8 104,-207.8 193.08,-207.8 193.08,-207.8"/>
<polygon fill="black" stroke="black" points="193.08,-211.3 203.08,-207.8 193.08,-204.3 193.08,-211.3"/>
</g>
<!-- SpeedTestService -->
<g id="node6" class="node">
<title>SpeedTestService</title>
<ellipse fill="#fdb462" stroke="black" cx="104" cy="-66.8" rx="80.43" ry="18"/>
<text text-anchor="middle" x="104" y="-62.6" font-family="Times,serif" font-size="14.00">SpeedTestService</text>
</g>
<!-- SpeedTestService&#45;&gt;SpeedTestModule -->
<g id="edge5" class="edge">
<title>SpeedTestService&#45;&gt;SpeedTestModule</title>
<path fill="none" stroke="black" d="M104,-84.81C104,-84.81 104,-114.65 104,-114.65"/>
<polygon fill="black" stroke="black" points="100.5,-114.65 104,-124.65 107.5,-114.65 100.5,-114.65"/>
</g>
</g>
</svg>
