<?xml version="1.0" encoding="UTF-8" standalone="no"?>
<!DOCTYPE svg PUBLIC "-//W3C//DTD SVG 1.1//EN"
 "http://www.w3.org/Graphics/SVG/1.1/DTD/svg11.dtd">
<!-- Generated by graphviz version 2.47.0 (20210316.0004)
 -->
<!-- Title: dependencies Pages: 1 -->
<svg width="640pt" height="284pt"
 viewBox="0.00 0.00 640.00 284.00" xmlns="http://www.w3.org/2000/svg" xmlns:xlink="http://www.w3.org/1999/xlink">
<g id="graph0" class="graph" transform="scale(1 1) rotate(0) translate(4 280)">
<title>dependencies</title>
<polygon fill="white" stroke="transparent" points="-4,4 -4,-280 636,-280 636,4 -4,4"/>
<text text-anchor="start" x="295.01" y="-42.4" font-family="Times-12" font-weight="bold" font-size="14.00">Legend</text>
<polygon fill="#ffffb3" stroke="transparent" points="82,-10 82,-30 102,-30 102,-10 82,-10"/>
<text text-anchor="start" x="105.63" y="-15.4" font-family="Times-12" font-size="14.00"> &#160;Declarations</text>
<polygon fill="#8dd3c7" stroke="transparent" points="195,-10 195,-30 215,-30 215,-10 195,-10"/>
<text text-anchor="start" x="218.73" y="-15.4" font-family="Times-12" font-size="14.00"> &#160;Module</text>
<polygon fill="#80b1d3" stroke="transparent" points="281,-10 281,-30 301,-30 301,-10 281,-10"/>
<text text-anchor="start" x="304.78" y="-15.4" font-family="Times-12" font-size="14.00"> &#160;Bootstrap</text>
<polygon fill="#fdb462" stroke="transparent" points="378,-10 378,-30 398,-30 398,-10 378,-10"/>
<text text-anchor="start" x="401.67" y="-15.4" font-family="Times-12" font-size="14.00"> &#160;Providers</text>
<polygon fill="#fb8072" stroke="transparent" points="474,-10 474,-30 494,-30 494,-10 474,-10"/>
<text text-anchor="start" x="497.73" y="-15.4" font-family="Times-12" font-size="14.00"> &#160;Exports</text>
<g id="clust1" class="cluster">
<title>cluster_AppModule</title>
<polygon fill="none" stroke="black" stroke-dasharray="1,5" points="8,-70 8,-268 482,-268 482,-70 8,-70"/>
</g>
<g id="clust2" class="cluster">
<title>cluster_AppModule_declarations</title>
<polygon fill="none" stroke="black" points="168,-78 168,-130 290,-130 290,-78 168,-78"/>
</g>
<g id="clust4" class="cluster">
<title>cluster_AppModule_imports</title>
<polygon fill="none" stroke="black" points="16,-78 16,-130 160,-130 160,-78 16,-78"/>
</g>
<g id="clust6" class="cluster">
<title>cluster_AppModule_bootstrap</title>
<polygon fill="none" stroke="black" points="167,-208 167,-260 291,-260 291,-208 167,-208"/>
</g>
<g id="clust7" class="cluster">
<title>cluster_AppModule_providers</title>
<polygon fill="none" stroke="black" points="298,-78 298,-130 474,-130 474,-78 298,-78"/>
</g>
<g id="clust14" class="cluster">
<title>cluster_SpeedTestModule</title>
<polygon fill="none" stroke="black" stroke-dasharray="1,5" points="490,-143 490,-195 624,-195 624,-143 490,-143"/>
</g>
<!-- AppComponent -->
<g id="node1" class="node">
<title>AppComponent</title>
<polygon fill="#ffffb3" stroke="black" points="281.94,-122 176.06,-122 176.06,-86 281.94,-86 281.94,-122"/>
<text text-anchor="middle" x="229" y="-99.8" font-family="Times,serif" font-size="14.00">AppComponent</text>
</g>
<!-- AppModule -->
<g id="node2" class="node">
<title>AppModule</title>
<polygon fill="#8dd3c7" stroke="black" points="270.66,-187 267.66,-191 246.66,-191 243.66,-187 187.34,-187 187.34,-151 270.66,-151 270.66,-187"/>
<text text-anchor="middle" x="229" y="-164.8" font-family="Times,serif" font-size="14.00">AppModule</text>
</g>
<!-- AppComponent&#45;&gt;AppModule -->
<g id="edge1" class="edge">
<title>AppComponent&#45;&gt;AppModule</title>
<path fill="none" stroke="black" d="M229,-122.11C229,-122.11 229,-140.99 229,-140.99"/>
<polygon fill="black" stroke="black" points="225.5,-140.99 229,-150.99 232.5,-140.99 225.5,-140.99"/>
</g>
<!-- AppComponent  -->
<g id="node4" class="node">
<title>AppComponent </title>
<polygon fill="#80b1d3" stroke="black" points="283.44,-252 174.56,-252 174.56,-216 283.44,-216 283.44,-252"/>
<text text-anchor="middle" x="229" y="-229.8" font-family="Times,serif" font-size="14.00">AppComponent </text>
</g>
<!-- AppModule&#45;&gt;AppComponent  -->
<g id="edge3" class="edge">
<title>AppModule&#45;&gt;AppComponent </title>
<path fill="none" stroke="black" stroke-dasharray="1,5" d="M229,-187.11C229,-187.11 229,-205.99 229,-205.99"/>
<polygon fill="black" stroke="black" points="225.5,-205.99 229,-215.99 232.5,-205.99 225.5,-205.99"/>
</g>
<!-- AppRoutingModule -->
<g id="node3" class="node">
<title>AppRoutingModule</title>
<polygon fill="#8dd3c7" stroke="black" points="152.27,-122 149.27,-126 128.27,-126 125.27,-122 23.73,-122 23.73,-86 152.27,-86 152.27,-122"/>
<text text-anchor="middle" x="88" y="-99.8" font-family="Times,serif" font-size="14.00">AppRoutingModule</text>
</g>
<!-- AppRoutingModule&#45;&gt;AppModule -->
<g id="edge2" class="edge">
<title>AppRoutingModule&#45;&gt;AppModule</title>
<path fill="none" stroke="black" d="M88,-122.11C88,-141.34 88,-169 88,-169 88,-169 177.08,-169 177.08,-169"/>
<polygon fill="black" stroke="black" points="177.08,-172.5 187.08,-169 177.08,-165.5 177.08,-172.5"/>
</g>
<!-- SpeedTestService -->
<g id="node5" class="node">
<title>SpeedTestService</title>
<ellipse fill="#fdb462" stroke="black" cx="386" cy="-104" rx="80.43" ry="18"/>
<text text-anchor="middle" x="386" y="-99.8" font-family="Times,serif" font-size="14.00">SpeedTestService</text>
</g>
<!-- SpeedTestService&#45;&gt;AppModule -->
<g id="edge4" class="edge">
<title>SpeedTestService&#45;&gt;AppModule</title>
<path fill="none" stroke="black" d="M386,-122.11C386,-141.34 386,-169 386,-169 386,-169 280.66,-169 280.66,-169"/>
<polygon fill="black" stroke="black" points="280.66,-165.5 270.66,-169 280.66,-172.5 280.66,-165.5"/>
</g>
<!-- SpeedTestModule -->
<g id="node6" class="node">
<title>SpeedTestModule</title>
<polygon fill="#8dd3c7" stroke="black" points="615.86,-187 612.86,-191 591.86,-191 588.86,-187 498.14,-187 498.14,-151 615.86,-151 615.86,-187"/>
<text text-anchor="middle" x="557" y="-164.8" font-family="Times,serif" font-size="14.00">SpeedTestModule</text>
</g>
<!-- SpeedTestService&#45;&gt;SpeedTestModule -->
<g id="edge5" class="edge">
<title>SpeedTestService&#45;&gt;SpeedTestModule</title>
<path fill="none" stroke="black" d="M466.24,-104C510.67,-104 557,-104 557,-104 557,-104 557,-140.89 557,-140.89"/>
<polygon fill="black" stroke="black" points="553.5,-140.89 557,-150.89 560.5,-140.89 553.5,-140.89"/>
</g>
</g>
</svg>
