<?xml version="1.0" encoding="UTF-8" standalone="no"?>
<!DOCTYPE svg PUBLIC "-//W3C//DTD SVG 1.1//EN"
 "http://www.w3.org/Graphics/SVG/1.1/DTD/svg11.dtd">
<!-- Generated by graphviz version 2.47.0 (20210316.0004)
 -->
<!-- Title: dependencies Pages: 1 -->
<svg width="504pt" height="360pt"
 viewBox="0.00 0.00 504.00 360.00" xmlns="http://www.w3.org/2000/svg" xmlns:xlink="http://www.w3.org/1999/xlink">
<g id="graph0" class="graph" transform="scale(1 1) rotate(0) translate(4 356)">
<title>dependencies</title>
<polygon fill="white" stroke="transparent" points="-4,4 -4,-356 500,-356 500,4 -4,4"/>
<text text-anchor="start" x="227.01" y="-42.4" font-family="Times-12" font-weight="bold" font-size="14.00">Legend</text>
<polygon fill="#ffffb3" stroke="transparent" points="14,-10 14,-30 34,-30 34,-10 14,-10"/>
<text text-anchor="start" x="37.63" y="-15.4" font-family="Times-12" font-size="14.00"> &#160;Declarations</text>
<polygon fill="#8dd3c7" stroke="transparent" points="127,-10 127,-30 147,-30 147,-10 127,-10"/>
<text text-anchor="start" x="150.73" y="-15.4" font-family="Times-12" font-size="14.00"> &#160;Module</text>
<polygon fill="#80b1d3" stroke="transparent" points="213,-10 213,-30 233,-30 233,-10 213,-10"/>
<text text-anchor="start" x="236.78" y="-15.4" font-family="Times-12" font-size="14.00"> &#160;Bootstrap</text>
<polygon fill="#fdb462" stroke="transparent" points="310,-10 310,-30 330,-30 330,-10 310,-10"/>
<text text-anchor="start" x="333.67" y="-15.4" font-family="Times-12" font-size="14.00"> &#160;Providers</text>
<polygon fill="#fb8072" stroke="transparent" points="406,-10 406,-30 426,-30 426,-10 406,-10"/>
<text text-anchor="start" x="429.73" y="-15.4" font-family="Times-12" font-size="14.00"> &#160;Exports</text>
<g id="clust1" class="cluster">
<title>cluster_AppModule</title>
<polygon fill="none" stroke="black" stroke-dasharray="1,5" points="45.5,-146 45.5,-344 471.5,-344 471.5,-146 45.5,-146"/>
</g>
<g id="clust2" class="cluster">
<title>cluster_AppModule_declarations</title>
<polygon fill="none" stroke="black" points="341.5,-154 341.5,-206 463.5,-206 463.5,-154 341.5,-154"/>
</g>
<g id="clust4" class="cluster">
<title>cluster_AppModule_imports</title>
<polygon fill="none" stroke="black" points="53.5,-154 53.5,-206 333.5,-206 333.5,-154 53.5,-154"/>
</g>
<g id="clust6" class="cluster">
<title>cluster_AppModule_bootstrap</title>
<polygon fill="none" stroke="black" points="199.5,-284 199.5,-336 323.5,-336 323.5,-284 199.5,-284"/>
</g>
<g id="clust14" class="cluster">
<title>cluster_SpeedTestModule</title>
<polygon fill="none" stroke="black" stroke-dasharray="1,5" points="24.5,-70 24.5,-138 216.5,-138 216.5,-70 24.5,-70"/>
</g>
<g id="clust19" class="cluster">
<title>cluster_SpeedTestModule_providers</title>
<polygon fill="none" stroke="black" points="32.5,-78 32.5,-130 208.5,-130 208.5,-78 32.5,-78"/>
</g>
<!-- AppComponent -->
<g id="node1" class="node">
<title>AppComponent</title>
<polygon fill="#ffffb3" stroke="black" points="455.44,-198 349.56,-198 349.56,-162 455.44,-162 455.44,-198"/>
<text text-anchor="middle" x="402.5" y="-175.8" font-family="Times,serif" font-size="14.00">AppComponent</text>
</g>
<!-- AppModule -->
<g id="node2" class="node">
<title>AppModule</title>
<polygon fill="#8dd3c7" stroke="black" points="303.16,-263 300.16,-267 279.16,-267 276.16,-263 219.84,-263 219.84,-227 303.16,-227 303.16,-263"/>
<text text-anchor="middle" x="261.5" y="-240.8" font-family="Times,serif" font-size="14.00">AppModule</text>
</g>
<!-- AppComponent&#45;&gt;AppModule -->
<g id="edge1" class="edge">
<title>AppComponent&#45;&gt;AppModule</title>
<path fill="none" stroke="black" d="M402.5,-198.11C402.5,-217.34 402.5,-245 402.5,-245 402.5,-245 313.42,-245 313.42,-245"/>
<polygon fill="black" stroke="black" points="313.42,-241.5 303.42,-245 313.42,-248.5 313.42,-241.5"/>
</g>
<!-- AppComponent  -->
<g id="node5" class="node">
<title>AppComponent </title>
<polygon fill="#80b1d3" stroke="black" points="315.94,-328 207.06,-328 207.06,-292 315.94,-292 315.94,-328"/>
<text text-anchor="middle" x="261.5" y="-305.8" font-family="Times,serif" font-size="14.00">AppComponent </text>
</g>
<!-- AppModule&#45;&gt;AppComponent  -->
<g id="edge4" class="edge">
<title>AppModule&#45;&gt;AppComponent </title>
<path fill="none" stroke="black" stroke-dasharray="1,5" d="M261.5,-263.11C261.5,-263.11 261.5,-281.99 261.5,-281.99"/>
<polygon fill="black" stroke="black" points="258,-281.99 261.5,-291.99 265,-281.99 258,-281.99"/>
</g>
<!-- AppRoutingModule -->
<g id="node3" class="node">
<title>AppRoutingModule</title>
<polygon fill="#8dd3c7" stroke="black" points="325.77,-198 322.77,-202 301.77,-202 298.77,-198 197.23,-198 197.23,-162 325.77,-162 325.77,-198"/>
<text text-anchor="middle" x="261.5" y="-175.8" font-family="Times,serif" font-size="14.00">AppRoutingModule</text>
</g>
<!-- AppRoutingModule&#45;&gt;AppModule -->
<g id="edge2" class="edge">
<title>AppRoutingModule&#45;&gt;AppModule</title>
<path fill="none" stroke="black" d="M261.5,-198.11C261.5,-198.11 261.5,-216.99 261.5,-216.99"/>
<polygon fill="black" stroke="black" points="258,-216.99 261.5,-226.99 265,-216.99 258,-216.99"/>
</g>
<!-- SpeedTestModule -->
<g id="node4" class="node">
<title>SpeedTestModule</title>
<polygon fill="#8dd3c7" stroke="black" points="179.36,-198 176.36,-202 155.36,-202 152.36,-198 61.64,-198 61.64,-162 179.36,-162 179.36,-198"/>
<text text-anchor="middle" x="120.5" y="-175.8" font-family="Times,serif" font-size="14.00">SpeedTestModule</text>
</g>
<!-- SpeedTestModule&#45;&gt;AppModule -->
<g id="edge3" class="edge">
<title>SpeedTestModule&#45;&gt;AppModule</title>
<path fill="none" stroke="black" d="M120.5,-198.11C120.5,-217.34 120.5,-245 120.5,-245 120.5,-245 209.58,-245 209.58,-245"/>
<polygon fill="black" stroke="black" points="209.58,-248.5 219.58,-245 209.58,-241.5 209.58,-248.5"/>
</g>
<!-- SpeedTestService -->
<g id="node6" class="node">
<title>SpeedTestService</title>
<ellipse fill="#fdb462" stroke="black" cx="120.5" cy="-104" rx="80.43" ry="18"/>
<text text-anchor="middle" x="120.5" y="-99.8" font-family="Times,serif" font-size="14.00">SpeedTestService</text>
</g>
<!-- SpeedTestService&#45;&gt;SpeedTestModule -->
<g id="edge5" class="edge">
<title>SpeedTestService&#45;&gt;SpeedTestModule</title>
<path fill="none" stroke="black" d="M120.5,-122.01C120.5,-122.01 120.5,-151.85 120.5,-151.85"/>
<polygon fill="black" stroke="black" points="117,-151.85 120.5,-161.85 124,-151.85 117,-151.85"/>
</g>
</g>
</svg>
