<?xml version="1.0" encoding="UTF-8" standalone="no"?>
<!DOCTYPE svg PUBLIC "-//W3C//DTD SVG 1.1//EN"
 "http://www.w3.org/Graphics/SVG/1.1/DTD/svg11.dtd">
<!-- Generated by graphviz version 2.40.1 (20161225.0304)
 -->
<!-- Title: dependencies Pages: 1 -->
<svg width="504pt" height="284pt"
 viewBox="0.00 0.00 504.00 284.00" xmlns="http://www.w3.org/2000/svg" xmlns:xlink="http://www.w3.org/1999/xlink">
<g id="graph0" class="graph" transform="scale(1 1) rotate(0) translate(4 280)">
<title>dependencies</title>
<polygon fill="#ffffff" stroke="transparent" points="-4,4 -4,-280 500,-280 500,4 -4,4"/>
<text text-anchor="start" x="227.0091" y="-42.4" font-family="sans-serif" font-weight="bold" font-size="14.00" fill="#000000">Legend</text>
<polygon fill="#ffffb3" stroke="transparent" points="14,-10 14,-30 34,-30 34,-10 14,-10"/>
<text text-anchor="start" x="37.629" y="-15.4" font-family="sans-serif" font-size="14.00" fill="#000000"> &#160;Declarations</text>
<polygon fill="#8dd3c7" stroke="transparent" points="127,-10 127,-30 147,-30 147,-10 127,-10"/>
<text text-anchor="start" x="150.7251" y="-15.4" font-family="sans-serif" font-size="14.00" fill="#000000"> &#160;Module</text>
<polygon fill="#80b1d3" stroke="transparent" points="213,-10 213,-30 233,-30 233,-10 213,-10"/>
<text text-anchor="start" x="236.7812" y="-15.4" font-family="sans-serif" font-size="14.00" fill="#000000"> &#160;Bootstrap</text>
<polygon fill="#fdb462" stroke="transparent" points="310,-10 310,-30 330,-30 330,-10 310,-10"/>
<text text-anchor="start" x="333.6732" y="-15.4" font-family="sans-serif" font-size="14.00" fill="#000000"> &#160;Providers</text>
<polygon fill="#fb8072" stroke="transparent" points="406,-10 406,-30 426,-30 426,-10 406,-10"/>
<text text-anchor="start" x="429.7258" y="-15.4" font-family="sans-serif" font-size="14.00" fill="#000000"> &#160;Exports</text>
<g id="clust1" class="cluster">
<title>cluster_AppModule</title>
<polygon fill="none" stroke="#000000" stroke-dasharray="1,5" points="35,-70 35,-268 461,-268 461,-70 35,-70"/>
</g>
<g id="clust2" class="cluster">
<title>cluster_AppModule_declarations</title>
<polygon fill="none" stroke="#000000" points="331,-78 331,-130 453,-130 453,-78 331,-78"/>
</g>
<g id="clust4" class="cluster">
<title>cluster_AppModule_imports</title>
<polygon fill="none" stroke="#000000" points="43,-78 43,-130 323,-130 323,-78 43,-78"/>
</g>
<g id="clust6" class="cluster">
<title>cluster_AppModule_bootstrap</title>
<polygon fill="none" stroke="#000000" points="189,-208 189,-260 313,-260 313,-208 189,-208"/>
</g>
<!-- AppComponent -->
<g id="node1" class="node">
<title>AppComponent</title>
<polygon fill="#ffffb3" stroke="#000000" points="444.9399,-122 339.0601,-122 339.0601,-86 444.9399,-86 444.9399,-122"/>
<text text-anchor="middle" x="392" y="-99.8" font-family="Times,serif" font-size="14.00" fill="#000000">AppComponent</text>
</g>
<!-- AppModule -->
<g id="node2" class="node">
<title>AppModule</title>
<polygon fill="#8dd3c7" stroke="#000000" points="292.6571,-187 289.6571,-191 268.6571,-191 265.6571,-187 209.3429,-187 209.3429,-151 292.6571,-151 292.6571,-187"/>
<text text-anchor="middle" x="251" y="-164.8" font-family="Times,serif" font-size="14.00" fill="#000000">AppModule</text>
</g>
<!-- AppComponent&#45;&gt;AppModule -->
<g id="edge1" class="edge">
<title>AppComponent&#45;&gt;AppModule</title>
<path fill="none" stroke="#000000" d="M392,-122.1061C392,-141.3391 392,-169 392,-169 392,-169 302.9229,-169 302.9229,-169"/>
<polygon fill="#000000" stroke="#000000" points="302.9229,-165.5001 292.9229,-169 302.9229,-172.5001 302.9229,-165.5001"/>
</g>
<!-- AppComponent  -->
<g id="node5" class="node">
<title>AppComponent </title>
<polygon fill="#80b1d3" stroke="#000000" points="305.439,-252 196.561,-252 196.561,-216 305.439,-216 305.439,-252"/>
<text text-anchor="middle" x="251" y="-229.8" font-family="Times,serif" font-size="14.00" fill="#000000">AppComponent </text>
</g>
<!-- AppModule&#45;&gt;AppComponent  -->
<g id="edge4" class="edge">
<title>AppModule&#45;&gt;AppComponent </title>
<path fill="none" stroke="#000000" stroke-dasharray="1,5" d="M251,-187.1061C251,-187.1061 251,-205.991 251,-205.991"/>
<polygon fill="#000000" stroke="#000000" points="247.5001,-205.9909 251,-215.991 254.5001,-205.991 247.5001,-205.9909"/>
</g>
<!-- AppRoutingModule -->
<g id="node3" class="node">
<title>AppRoutingModule</title>
<polygon fill="#8dd3c7" stroke="#000000" points="315.2744,-122 312.2744,-126 291.2744,-126 288.2744,-122 186.7256,-122 186.7256,-86 315.2744,-86 315.2744,-122"/>
<text text-anchor="middle" x="251" y="-99.8" font-family="Times,serif" font-size="14.00" fill="#000000">AppRoutingModule</text>
</g>
<!-- AppRoutingModule&#45;&gt;AppModule -->
<g id="edge2" class="edge">
<title>AppRoutingModule&#45;&gt;AppModule</title>
<path fill="none" stroke="#000000" d="M251,-122.1061C251,-122.1061 251,-140.991 251,-140.991"/>
<polygon fill="#000000" stroke="#000000" points="247.5001,-140.9909 251,-150.991 254.5001,-140.991 247.5001,-140.9909"/>
</g>
<!-- SpeedTestModule -->
<g id="node4" class="node">
<title>SpeedTestModule</title>
<polygon fill="#8dd3c7" stroke="#000000" points="168.8641,-122 165.8641,-126 144.8641,-126 141.8641,-122 51.1359,-122 51.1359,-86 168.8641,-86 168.8641,-122"/>
<text text-anchor="middle" x="110" y="-99.8" font-family="Times,serif" font-size="14.00" fill="#000000">SpeedTestModule</text>
</g>
<!-- SpeedTestModule&#45;&gt;AppModule -->
<g id="edge3" class="edge">
<title>SpeedTestModule&#45;&gt;AppModule</title>
<path fill="none" stroke="#000000" d="M110,-122.1061C110,-141.3391 110,-169 110,-169 110,-169 199.0771,-169 199.0771,-169"/>
<polygon fill="#000000" stroke="#000000" points="199.0771,-172.5001 209.0771,-169 199.0771,-165.5001 199.0771,-172.5001"/>
</g>
</g>
</svg>
