<?xml version="1.0" encoding="UTF-8" standalone="no"?>
<!DOCTYPE svg PUBLIC "-//W3C//DTD SVG 1.1//EN"
 "http://www.w3.org/Graphics/SVG/1.1/DTD/svg11.dtd">
<!-- Generated by graphviz version 2.47.3 (20210619.1520)
 -->
<!-- Title: dependencies Pages: 1 -->
<svg width="450pt" height="247pt"
 viewBox="0.00 0.00 450.00 246.80" xmlns="http://www.w3.org/2000/svg" xmlns:xlink="http://www.w3.org/1999/xlink">
<g id="graph0" class="graph" transform="scale(1 1) rotate(0) translate(4 242.8)">
<title>dependencies</title>
<polygon fill="white" stroke="transparent" points="-4,4 -4,-242.8 446,-242.8 446,4 -4,4"/>
<text text-anchor="middle" x="221" y="-8.2" font-family="sans-serif" font-size="14.00">dependencies</text>
<g id="clust1" class="cluster">
<title>cluster_AppModule</title>
<polygon fill="none" stroke="black" stroke-dasharray="1,5" points="8,-32.8 8,-230.8 434,-230.8 434,-32.8 8,-32.8"/>
</g>
<g id="clust4" class="cluster">
<title>cluster_AppModule_imports</title>
<polygon fill="none" stroke="black" points="146,-40.8 146,-92.8 426,-92.8 426,-40.8 146,-40.8"/>
</g>
<g id="clust6" class="cluster">
<title>cluster_AppModule_bootstrap</title>
<polygon fill="none" stroke="black" points="151,-170.8 151,-222.8 275,-222.8 275,-170.8 151,-170.8"/>
</g>
<g id="clust2" class="cluster">
<title>cluster_AppModule_declarations</title>
<polygon fill="none" stroke="black" points="16,-40.8 16,-92.8 138,-92.8 138,-40.8 16,-40.8"/>
</g>
<!-- AppComponent -->
<g id="node1" class="node">
<title>AppComponent</title>
<polygon fill="#ffffb3" stroke="black" points="129.94,-84.8 24.06,-84.8 24.06,-48.8 129.94,-48.8 129.94,-84.8"/>
<text text-anchor="middle" x="77" y="-62.6" font-family="Times,serif" font-size="14.00">AppComponent</text>
</g>
<!-- AppModule -->
<g id="node2" class="node">
<title>AppModule</title>
<polygon fill="#8dd3c7" stroke="black" points="254.66,-149.8 251.66,-153.8 230.66,-153.8 227.66,-149.8 171.34,-149.8 171.34,-113.8 254.66,-113.8 254.66,-149.8"/>
<text text-anchor="middle" x="213" y="-127.6" font-family="Times,serif" font-size="14.00">AppModule</text>
</g>
<!-- AppComponent&#45;&gt;AppModule -->
<g id="edge1" class="edge">
<title>AppComponent&#45;&gt;AppModule</title>
<path fill="none" stroke="black" d="M77,-84.91C77,-104.14 77,-131.8 77,-131.8 77,-131.8 161.09,-131.8 161.09,-131.8"/>
<polygon fill="black" stroke="black" points="161.09,-135.3 171.09,-131.8 161.09,-128.3 161.09,-135.3"/>
</g>
<!-- AppComponent  -->
<g id="node5" class="node">
<title>AppComponent </title>
<polygon fill="#80b1d3" stroke="black" points="267.44,-214.8 158.56,-214.8 158.56,-178.8 267.44,-178.8 267.44,-214.8"/>
<text text-anchor="middle" x="213" y="-192.6" font-family="Times,serif" font-size="14.00">AppComponent </text>
</g>
<!-- AppModule&#45;&gt;AppComponent  -->
<g id="edge4" class="edge">
<title>AppModule&#45;&gt;AppComponent </title>
<path fill="none" stroke="black" stroke-dasharray="1,5" d="M213,-149.91C213,-149.91 213,-168.79 213,-168.79"/>
<polygon fill="black" stroke="black" points="209.5,-168.79 213,-178.79 216.5,-168.79 209.5,-168.79"/>
</g>
<!-- AppRoutingModule -->
<g id="node3" class="node">
<title>AppRoutingModule</title>
<polygon fill="#8dd3c7" stroke="black" points="418.27,-84.8 415.27,-88.8 394.27,-88.8 391.27,-84.8 289.73,-84.8 289.73,-48.8 418.27,-48.8 418.27,-84.8"/>
<text text-anchor="middle" x="354" y="-62.6" font-family="Times,serif" font-size="14.00">AppRoutingModule</text>
</g>
<!-- AppRoutingModule&#45;&gt;AppModule -->
<g id="edge2" class="edge">
<title>AppRoutingModule&#45;&gt;AppModule</title>
<path fill="none" stroke="black" d="M354,-84.91C354,-104.14 354,-131.8 354,-131.8 354,-131.8 264.92,-131.8 264.92,-131.8"/>
<polygon fill="black" stroke="black" points="264.92,-128.3 254.92,-131.8 264.92,-135.3 264.92,-128.3"/>
</g>
<!-- SpeedTestModule -->
<g id="node4" class="node">
<title>SpeedTestModule</title>
<polygon fill="#8dd3c7" stroke="black" points="271.86,-84.8 268.86,-88.8 247.86,-88.8 244.86,-84.8 154.14,-84.8 154.14,-48.8 271.86,-48.8 271.86,-84.8"/>
<text text-anchor="middle" x="213" y="-62.6" font-family="Times,serif" font-size="14.00">SpeedTestModule</text>
</g>
<!-- SpeedTestModule&#45;&gt;AppModule -->
<g id="edge3" class="edge">
<title>SpeedTestModule&#45;&gt;AppModule</title>
<path fill="none" stroke="black" d="M213,-84.91C213,-84.91 213,-103.79 213,-103.79"/>
<polygon fill="black" stroke="black" points="209.5,-103.79 213,-113.79 216.5,-103.79 209.5,-103.79"/>
</g>
</g>
</svg>
